HIERARCHY
ROOT hips
{
	OFFSET 0.000000 104.274902 0.000000
	CHANNELS 6 Xposition Yposition Zposition Xrotation Yrotation Zrotation
	JOINT spine
	{
		OFFSET 0.000000 10.181549 0.131524
		CHANNELS 6 Xposition Yposition Zposition Xrotation Yrotation Zrotation
		JOINT chest
		{
			OFFSET 0.000000 9.893990 -1.470706
			CHANNELS 3 Xrotation Yrotation Zrotation
			JOINT upperChest
			{
				OFFSET 0.000000 9.220787 -1.370637
				CHANNELS 3 Xrotation Yrotation Zrotation
				JOINT neck
				{
					OFFSET 0.000000 16.740372 -2.049022
					CHANNELS 6 Xposition Yposition Zposition Xrotation Yrotation Zrotation
					JOINT head
					{
						OFFSET 0.000000 9.617859 1.684976
						CHANNELS 6 Xposition Yposition Zposition Xrotation Yrotation Zrotation
						JOINT headEnd
						{
							OFFSET 0.000000 22.037384 7.501072
							CHANNELS 6 Xposition Yposition Zposition Xrotation Yrotation Zrotation
							End Site
							{
								OFFSET 0.000000 23.106567 -2.828246
							}
						}
					}
				}
				JOINT rightShoulder
				{
					OFFSET -4.570000 11.014877 -2.160840
					CHANNELS 6 Xposition Yposition Zposition Xrotation Yrotation Zrotation
					JOINT rightUpperArm
					{
						OFFSET -10.592867 -0.524796 -2.232105
						CHANNELS 3 Xrotation Yrotation Zrotation
						JOINT rightLowerArm
						{
							OFFSET -27.841497 0.000000 -0.000002
							CHANNELS 3 Xrotation Yrotation Zrotation
							JOINT rightHand
							{
								OFFSET -28.328812 0.000000 -0.000001
								CHANNELS 3 Xrotation Yrotation Zrotation
								JOINT rightThumbProximal
								{
									OFFSET -2.464798 -1.573990 2.681911
									CHANNELS 6 Xposition Yposition Zposition Xrotation Yrotation Zrotation
									JOINT rightThumbIntermediate
									{
										OFFSET -3.244781 -1.873383 1.873376
										CHANNELS 3 Xrotation Yrotation Zrotation
										JOINT rightThumbDistal
										{
											OFFSET -2.646263 -1.527817 1.527818
											CHANNELS 6 Xposition Yposition Zposition Xrotation Yrotation Zrotation
											JOINT rightHandThumb4
											{
												OFFSET -1.994591 -1.151581 1.151575
												CHANNELS 6 Xposition Yposition Zposition Xrotation Yrotation Zrotation
												End Site
												{
													OFFSET -1.860176 -1.142715 1.365483
												}
											}
										}
									}
								}
								JOINT rightIndexProximal
								{
									OFFSET -9.108299 -0.517883 2.259803
									CHANNELS 6 Xposition Yposition Zposition Xrotation Yrotation Zrotation
									JOINT rightIndexIntermediate
									{
										OFFSET -3.699997 0.000000 0.000000
										CHANNELS 3 Xrotation Yrotation Zrotation
										JOINT rightIndexDistal
										{
											OFFSET -2.850006 0.000000 0.000000
											CHANNELS 3 Xrotation Yrotation Zrotation
											JOINT rightHandIndex4
											{
												OFFSET -2.772194 0.000000 0.000000
												CHANNELS 3 Xrotation Yrotation Zrotation
												End Site
												{
													OFFSET -2.772202 0.000000 -0.000484
												}
											}
										}
									}
								}
								JOINT rightMiddleProximal
								{
									OFFSET -9.532501 0.000000 -0.000000
									CHANNELS 6 Xposition Yposition Zposition Xrotation Yrotation Zrotation
									JOINT rightMiddleIntermediate
									{
										OFFSET -3.699997 0.000000 0.000000
										CHANNELS 3 Xrotation Yrotation Zrotation
										JOINT rightMiddleDistal
										{
											OFFSET -2.949997 0.000000 0.000000
											CHANNELS 3 Xrotation Yrotation Zrotation
											JOINT rightHandMiddle4
											{
												OFFSET -2.946594 0.000000 0.000000
												CHANNELS 3 Xrotation Yrotation Zrotation
												End Site
												{
													OFFSET -2.946602 0.000000 -0.000982
												}
											}
										}
									}
								}
								JOINT rightRingProximal
								{
									OFFSET -9.103600 -0.043106 -1.865100
									CHANNELS 6 Xposition Yposition Zposition Xrotation Yrotation Zrotation
									JOINT rightRingIntermediate
									{
										OFFSET -3.379303 0.000000 0.000000
										CHANNELS 3 Xrotation Yrotation Zrotation
										JOINT rightRingDistal
										{
											OFFSET -2.889694 0.000000 0.000000
											CHANNELS 3 Xrotation Yrotation Zrotation
											JOINT rightHandRing4
											{
												OFFSET -2.638802 0.000000 0.000000
												CHANNELS 3 Xrotation Yrotation Zrotation
												End Site
												{
													OFFSET -2.638802 0.000000 0.004218
												}
											}
										}
									}
								}
								JOINT rightLittleProximal
								{
									OFFSET -8.076698 -0.486725 -3.806299
									CHANNELS 6 Xposition Yposition Zposition Xrotation Yrotation Zrotation
									JOINT rightLittleIntermediate
									{
										OFFSET -3.600006 0.000000 0.000000
										CHANNELS 3 Xrotation Yrotation Zrotation
										JOINT rightLittleDistal
										{
											OFFSET -2.099998 0.000000 0.000000
											CHANNELS 3 Xrotation Yrotation Zrotation
											JOINT rightHandPinky4
											{
												OFFSET -2.115791 0.000000 0.000000
												CHANNELS 3 Xrotation Yrotation Zrotation
												End Site
												{
													OFFSET -2.115799 0.000000 0.000174
												}
											}
										}
									}
								}
							}
						}
					}
				}
				JOINT leftShoulder
				{
					OFFSET 4.570400 11.014679 -2.160816
					CHANNELS 6 Xposition Yposition Zposition Xrotation Yrotation Zrotation
					JOINT leftUpperArm
					{
						OFFSET 10.592373 -0.524597 -2.232116
						CHANNELS 3 Xrotation Yrotation Zrotation
						JOINT leftLowerArm
						{
							OFFSET 27.841488 0.000000 0.000001
							CHANNELS 3 Xrotation Yrotation Zrotation
							JOINT leftHand
							{
								OFFSET 28.328808 0.000000 -0.000000
								CHANNELS 3 Xrotation Yrotation Zrotation
								JOINT leftThumbProximal
								{
									OFFSET 2.466103 -1.576202 2.681698
									CHANNELS 6 Xposition Yposition Zposition Xrotation Yrotation Zrotation
									JOINT leftThumbIntermediate
									{
										OFFSET 3.243317 -1.872528 1.872530
										CHANNELS 3 Xrotation Yrotation Zrotation
										JOINT leftThumbDistal
										{
											OFFSET 2.647881 -1.528763 1.528754
											CHANNELS 6 Xposition Yposition Zposition Xrotation Yrotation Zrotation
											JOINT leftHandThumb4
											{
												OFFSET 1.998924 -1.154083 1.154080
												CHANNELS 6 Xposition Yposition Zposition Xrotation Yrotation Zrotation
												End Site
												{
													OFFSET 1.884041 -1.149155 1.337651
												}
											}
										}
									}
								}
								JOINT leftIndexProximal
								{
									OFFSET 9.109299 -0.518005 2.259900
									CHANNELS 6 Xposition Yposition Zposition Xrotation Yrotation Zrotation
									JOINT leftIndexIntermediate
									{
										OFFSET 3.699997 0.000000 0.000000
										CHANNELS 3 Xrotation Yrotation Zrotation
										JOINT leftIndexDistal
										{
											OFFSET 2.850006 0.000000 0.000000
											CHANNELS 3 Xrotation Yrotation Zrotation
											JOINT leftHandIndex4
											{
												OFFSET 2.774895 0.000000 0.000000
												CHANNELS 3 Xrotation Yrotation Zrotation
												End Site
												{
													OFFSET 2.774902 0.000000 -0.000072
												}
											}
										}
									}
								}
								JOINT leftMiddleProximal
								{
									OFFSET 9.533401 0.000000 0.000000
									CHANNELS 6 Xposition Yposition Zposition Xrotation Yrotation Zrotation
									JOINT leftMiddleIntermediate
									{
										OFFSET 3.699997 0.000000 0.000000
										CHANNELS 3 Xrotation Yrotation Zrotation
										JOINT leftMiddleDistal
										{
											OFFSET 2.949997 0.000000 0.000000
											CHANNELS 3 Xrotation Yrotation Zrotation
											JOINT leftHandMiddle4
											{
												OFFSET 2.952896 0.000000 0.000000
												CHANNELS 3 Xrotation Yrotation Zrotation
												End Site
												{
													OFFSET 2.952904 0.000000 0.000165
												}
											}
										}
									}
								}
								JOINT leftRingProximal
								{
									OFFSET 9.104500 -0.042999 -1.865101
									CHANNELS 6 Xposition Yposition Zposition Xrotation Yrotation Zrotation
									JOINT leftRingIntermediate
									{
										OFFSET 3.149994 0.000000 0.000000
										CHANNELS 3 Xrotation Yrotation Zrotation
										JOINT leftRingDistal
										{
											OFFSET 2.950005 0.000000 0.000000
											CHANNELS 3 Xrotation Yrotation Zrotation
											JOINT leftHandRing4
											{
												OFFSET 2.644302 0.000000 0.000000
												CHANNELS 3 Xrotation Yrotation Zrotation
												End Site
												{
													OFFSET 2.644302 0.000000 0.000083
												}
											}
										}
									}
								}
								JOINT leftLittleProximal
								{
									OFFSET 8.077805 -0.486893 -3.806302
									CHANNELS 6 Xposition Yposition Zposition Xrotation Yrotation Zrotation
									JOINT leftLittleIntermediate
									{
										OFFSET 3.600006 0.000000 0.000000
										CHANNELS 3 Xrotation Yrotation Zrotation
										JOINT leftLittleDistal
										{
											OFFSET 2.099998 0.000000 0.000000
											CHANNELS 3 Xrotation Yrotation Zrotation
											JOINT leftHandPinky4
											{
												OFFSET 2.125496 0.000000 0.000000
												CHANNELS 3 Xrotation Yrotation Zrotation
												End Site
												{
													OFFSET 2.125504 0.000000 -0.001254
												}
											}
										}
									}
								}
							}
						}
					}
				}
			}
		}
	}
	JOINT rightUpperLeg
	{
		OFFSET -8.207800 -6.751701 -1.599544
		CHANNELS 6 Xposition Yposition Zposition Xrotation Yrotation Zrotation
		JOINT rightLowerLeg
		{
			OFFSET 0.000004 -44.370152 0.345934
			CHANNELS 3 Xrotation Yrotation Zrotation
			JOINT rightFoot
			{
				OFFSET 0.000004 -44.423664 -3.043535
				CHANNELS 3 Xrotation Yrotation Zrotation
				JOINT rightToes
				{
					OFFSET 0.000001 -8.728691 10.710592
					CHANNELS 3 Xrotation Yrotation Zrotation
					JOINT rightToesEnd
					{
						OFFSET 0.000000 -0.000665 9.278101
						CHANNELS 3 Xrotation Yrotation Zrotation
						End Site
						{
							OFFSET 0.000000 -0.000665 9.278103
						}
					}
				}
			}
		}
	}
	JOINT leftUpperLeg
	{
		OFFSET 8.207800 -6.751701 -1.599544
		CHANNELS 6 Xposition Yposition Zposition Xrotation Yrotation Zrotation
		JOINT leftLowerLeg
		{
			OFFSET 0.000004 -44.370037 0.346940
			CHANNELS 3 Xrotation Yrotation Zrotation
			JOINT leftFoot
			{
				OFFSET 0.000004 -44.423611 -3.044388
				CHANNELS 3 Xrotation Yrotation Zrotation
				JOINT leftToes
				{
					OFFSET 0.000001 -8.728690 10.710592
					CHANNELS 3 Xrotation Yrotation Zrotation
					JOINT leftToesEnd
					{
						OFFSET 0.000000 -0.000680 9.278101
						CHANNELS 3 Xrotation Yrotation Zrotation
						End Site
						{
							OFFSET 0.000000 -0.000680 9.278101
						}
					}
				}
			}
		}
	}
}
MOTION
Frames: 4
Frame Time: 0.033333
1.172064 100.904495 3.392761 -2.956678 2.665174 3.612225 0.000001 10.181559 0.131522 -0.209680 9.625723 -6.941085 6.250011 1.313379 1.803221 6.195565 1.408043 1.908826 -0.000001 16.740360 -2.049019 2.475824 1.577882 -1.746360 -0.000002 9.617833 1.684978 -23.369113 9.928320 -6.447478 0.000000 22.037369 7.501075 0.000001 -0.000002 0.000001 -4.570002 11.014866 -2.160841 0.943122 4.701539 7.479969 -0.054392 14.626205 65.938312 -0.000001 16.579427 0.000026 0.584340 -1.693423 -2.556081 -2.464803 -1.573997 2.681908 -4.171274 -8.426731 -19.038056 5.640680 -16.660968 -0.810828 -2.646266 -1.527803 1.527814 -0.834600 -0.787464 -2.183589 -1.994594 -1.151571 1.151572 0.000004 -0.000003 0.000001 -9.108302 -0.517884 2.259803 -0.683381 7.993180 5.257889 0.139323 -1.387678 11.465337 0.517381 -2.636527 22.201168 0.000004 0.000000 0.000003 -9.532505 0.000016 0.000000 -1.113465 4.297066 12.796741 0.226264 -1.762749 14.627395 0.560430 -2.555032 21.712225 0.000001 -0.000004 0.000004 -9.103597 -0.043109 -1.865103 -0.470545 -0.191317 22.141769 0.367759 -2.235499 18.682166 0.452476 -2.527701 21.173337 0.000001 -0.000003 0.000004 -8.076694 -0.486723 -3.806298 1.141712 -3.822862 32.886470 0.596296 -2.821955 23.858255 0.483595 -2.552295 21.454932 -0.000003 0.000003 -0.000000 4.570400 11.014679 -2.160816 0.597121 -4.018979 -4.043806 50.402182 -8.043489 -50.927420 -0.000004 -115.104206 0.000007 37.454019 6.674987 -6.636363 2.466105 -1.576207 2.681699 7.402246 -19.933026 -25.730564 5.281288 7.333327 -0.945789 2.647887 -1.528731 1.528753 -0.483640 8.423940 9.079240 1.998932 -1.154092 1.154076 0.000001 0.000000 0.000003 9.109321 -0.518020 2.259903 2.838965 -15.840897 9.799859 -0.000009 0.000018 -0.000070 0.002167 -0.173090 1.434424 0.000002 -0.000001 0.000001 9.533409 0.000006 0.000001 0.788466 -10.572397 3.805018 0.100681 1.175674 -9.790882 0.057064 0.886461 -7.366363 0.000003 -0.000001 0.000004 9.104513 -0.042991 -1.865097 -0.310797 -5.296889 -3.586571 0.505266 2.593575 -22.045590 0.348484 2.166873 -18.272014 0.000000 0.000002 0.000000 8.077819 -0.486897 -3.806298 0.740165 3.642813 -15.113778 1.132015 -0.295784 -33.502549 0.766230 3.161800 -27.240715 0.000001 -0.000002 -0.000001 -8.207806 -6.751709 -1.599541 -16.568101 -4.396127 -15.517237 23.321903 -8.800826 -3.558135 2.887727 -9.439715 11.810925 -6.116054 0.000029 0.000000 0.000000 -0.000000 -0.000000 8.207801 -6.751690 -1.599543 -7.214286 7.850088 -5.693998 25.162974 -3.690922 3.571754 -14.827180 27.225694 2.226240 -3.902352 0.000021 0.000001 0.000000 -0.000001 -0.000000 
1.148911 100.902115 3.393807 -2.951597 2.604251 3.662270 -0.000001 10.181556 0.131523 -0.087338 9.872003 -6.973606 6.281296 1.334579 1.792374 6.231506 1.428163 1.877098 -0.000000 16.740395 -2.049023 2.505731 1.633365 -1.766351 -0.000000 9.617843 1.684979 -23.924811 10.135676 -6.216111 0.000004 22.037369 7.501073 -0.000000 0.000000 0.000000 -4.570004 11.014875 -2.160839 0.940684 4.679611 7.466823 -0.115844 14.689360 66.037493 -0.000012 16.160690 0.000027 0.436967 -1.639946 -2.940278 -2.464804 -1.573996 2.681906 -4.305805 -8.740774 -19.443032 5.547933 -16.872799 -0.748472 -2.646266 -1.527790 1.527816 -0.922505 -0.601913 -2.166314 -1.994590 -1.151586 1.151581 -0.000000 0.000001 -0.000000 -9.108310 -0.517879 2.259801 -0.710619 8.089854 5.392210 0.130372 -1.342872 11.090411 0.424732 -2.397229 20.091473 -0.000002 -0.000000 -0.000001 -9.532502 0.000009 -0.000002 -1.173303 4.484734 12.980384 0.219854 -1.737986 14.417380 0.501128 -2.456346 20.770557 -0.000005 0.000000 0.000001 -9.103601 -0.043108 -1.865104 -0.600235 0.096864 22.403446 0.359338 -2.210478 18.465288 0.407332 -2.482553 20.695253 0.000001 0.000001 0.000005 -8.076704 -0.486724 -3.806299 0.899207 -3.448758 32.919671 0.596290 -2.821954 23.858257 0.484503 -2.554560 21.475023 -0.000000 -0.000000 -0.000000 4.570401 11.014690 -2.160815 0.594318 -3.990310 -4.009161 50.236011 -8.134999 -50.925832 -0.000000 -115.123358 0.000005 37.578366 6.656694 -6.663503 2.466104 -1.576209 2.681694 7.434103 -19.923220 -25.555146 5.248314 7.224038 -0.964892 2.647874 -1.528737 1.528749 -0.500802 8.170084 9.112842 1.998940 -1.154093 1.154068 -0.000002 -0.000004 -0.000000 9.109315 -0.518022 2.259901 2.837804 -15.834428 9.800338 -0.000012 0.000018 -0.000070 0.003191 -0.209609 1.737280 0.000002 -0.000001 0.000001 9.533401 0.000008 0.000001 0.789900 -10.568883 3.814995 0.100680 1.175664 -9.790825 0.053860 0.861395 -7.156856 -0.000000 -0.000001 -0.000004 9.104507 -0.042990 -1.865103 -0.308732 -5.297520 -3.565288 0.505258 2.593567 -22.045595 0.344978 2.156222 -18.178936 -0.000001 -0.000001 0.000001 8.077805 -0.486898 -3.806301 0.738238 3.639553 -15.083423 1.132014 -0.295782 -33.502553 0.766188 3.161680 -27.239605 0.000001 0.000001 -0.000001 -8.207803 -6.751712 -1.599542 -16.637391 -4.413816 -15.527347 23.372455 -8.807859 -3.636443 2.862200 -9.343991 11.808456 -6.111068 -0.000002 0.000009 0.000000 0.000000 -0.000000 8.207801 -6.751714 -1.599544 -7.204670 7.877998 -5.721167 25.153563 -3.684097 3.543455 -14.828161 27.219991 2.270059 -3.986795 0.000048 0.000001 -0.000000 -0.000000 -0.000000 
1.150989 100.901962 3.395319 -2.940939 2.624056 3.659116 0.000001 10.181554 0.131523 -0.096746 9.941082 -7.005999 6.275009 1.345355 1.816197 6.230951 1.436771 1.884406 0.000000 16.740351 -2.049022 2.545225 1.697594 -1.790943 -0.000000 9.617835 1.684993 -24.192288 10.373045 -5.974942 0.000004 22.037384 7.501069 0.000001 -0.000002 -0.000000 -4.569999 11.014873 -2.160839 0.944240 4.714531 7.484824 -0.178351 14.662548 66.102714 -0.000002 16.099003 0.000000 0.375372 -1.248906 -3.154972 -2.464806 -1.574002 2.681907 -4.409567 -9.026969 -19.687021 5.478369 -17.081639 -0.699520 -2.646273 -1.527795 1.527822 -0.838042 -0.784418 -2.187658 -1.994582 -1.151585 1.151574 0.000003 -0.000004 -0.000004 -9.108309 -0.517879 2.259800 -0.726290 8.113681 5.484032 0.130914 -1.345585 11.112953 0.438732 -2.435166 20.423975 -0.000001 -0.000000 0.000002 -9.532507 -0.000003 -0.000002 -1.192605 4.531535 13.064333 0.220351 -1.739966 14.434164 0.532520 -2.495098 21.164168 -0.000002 -0.000001 0.000001 -9.103609 -0.043109 -1.865103 -0.634171 0.169908 22.480109 0.357303 -2.204333 18.412226 0.432163 -2.499560 20.897961 -0.000003 0.000000 0.000003 -8.076707 -0.486728 -3.806300 0.833740 -3.346587 32.853353 0.596302 -2.821964 23.858261 0.488403 -2.564468 21.562545 -0.000000 -0.000001 -0.000000 4.570399 11.014675 -2.160812 0.595522 -4.012281 -4.011849 50.232124 -8.192160 -50.901609 0.000008 -115.134737 0.000036 37.589253 6.676526 -6.650676 2.466092 -1.576203 2.681694 7.460578 -19.913024 -25.390214 5.209060 7.210165 -0.964393 2.647892 -1.528735 1.528752 -0.521633 7.849076 9.154398 1.998940 -1.154107 1.154070 0.000003 0.000005 -0.000000 9.109291 -0.518013 2.259904 2.847092 -15.886168 9.796538 -0.000012 0.000019 -0.000070 0.004131 -0.238715 1.978412 0.000001 -0.000000 0.000001 9.533398 0.000009 0.000002 0.792682 -10.605332 3.812870 0.100687 1.175636 -9.790537 0.051386 0.841468 -6.990405 0.000000 -0.000000 0.000001 9.104501 -0.042999 -1.865096 -0.309368 -5.314129 -3.563300 0.505247 2.593553 -22.045373 0.342199 2.147738 -18.104680 -0.000001 0.000002 0.000000 8.077801 -0.486896 -3.806295 0.737876 3.638913 -15.077591 1.132015 -0.295783 -33.502553 0.766104 3.161521 -27.238216 0.000000 -0.000002 -0.000004 -8.207802 -6.751714 -1.599542 -16.647046 -4.428482 -15.515757 23.368550 -8.813925 -3.662067 2.869481 -9.352447 11.817651 -6.111466 0.000005 0.000002 -0.000000 -0.000002 -0.000001 8.207799 -6.751709 -1.599544 -7.217430 7.879981 -5.722989 25.155083 -3.691113 3.553555 -14.825866 27.220341 2.264034 -3.978735 -0.000003 -0.000000 0.000000 -0.000002 -0.000000 
1.170211 100.903397 3.396399 -2.930976 2.699876 3.617111 0.000001 10.181563 0.131524 -0.215633 9.863053 -7.011215 6.238363 1.345947 1.862623 6.200132 1.435163 1.917126 -0.000000 16.740345 -2.049021 2.588119 1.764926 -1.817156 -0.000001 9.617846 1.684982 -24.259620 10.620053 -5.734182 -0.000001 22.037369 7.501076 -0.000000 0.000001 0.000001 -4.569999 11.014858 -2.160840 0.949735 4.762431 7.516029 -0.237118 14.532926 66.145567 0.000007 16.205553 0.000014 0.550744 -0.551328 -3.166918 -2.464795 -1.573984 2.681905 -4.501695 -9.326546 -19.848323 5.410235 -17.290475 -0.651017 -2.646259 -1.527796 1.527818 -0.550145 -1.405891 -2.258425 -1.994597 -1.151583 1.151579 0.000003 -0.000001 -0.000000 -9.108294 -0.517881 2.259804 -0.729248 8.097955 5.511557 0.140793 -1.395048 11.527221 0.558088 -2.734033 23.069770 -0.000001 0.000001 -0.000000 -9.532495 -0.000003 -0.000001 -1.182586 4.494834 13.045483 0.227857 -1.768804 14.678864 0.657153 -2.663835 22.859062 -0.000000 0.000000 0.000003 -9.103594 -0.043106 -1.865101 -0.605623 0.111488 22.393808 0.361114 -2.215756 18.511204 0.525444 -2.571521 21.730261 0.000001 -0.000002 0.000003 -8.076693 -0.486728 -3.806301 0.880270 -3.416465 32.694702 0.596304 -2.821962 23.858250 0.493428 -2.577161 21.674895 -0.000002 0.000002 -0.000000 4.570402 11.014676 -2.160816 0.598693 -4.055404 -4.036754 50.349880 -8.237691 -50.862168 -0.000000 -115.114164 0.000029 37.514807 6.706232 -6.599791 2.466081 -1.576204 2.681697 7.474885 -19.902830 -25.257823 5.170223 7.309196 -0.941334 2.647896 -1.528742 1.528749 -0.542495 7.511869 9.197134 1.998932 -1.154085 1.154075 -0.000000 -0.000002 0.000003 9.109282 -0.518016 2.259896 2.866751 -15.995634 9.788544 -0.000009 0.000018 -0.000072 0.004703 -0.255011 2.113565 -0.000004 -0.000001 0.000001 9.533381 0.000008 0.000001 0.796458 -10.681262 3.797014 0.100682 1.175578 -9.790031 0.050039 0.830358 -6.897662 0.000003 0.000000 0.000000 9.104478 -0.043001 -1.865106 -0.313053 -5.346162 -3.584311 0.505239 2.593506 -22.044909 0.340613 2.142933 -18.062891 -0.000001 0.000002 0.000000 8.077785 -0.486897 -3.806306 0.739409 3.641509 -15.101669 1.132014 -0.295782 -33.502553 0.766012 3.161367 -27.236733 -0.000000 -0.000001 -0.000001 -8.207801 -6.751703 -1.599542 -16.594260 -4.397560 -15.492875 23.329044 -8.810049 -3.614655 2.892642 -9.481875 11.828366 -6.118774 0.000003 0.000004 0.000000 0.000000 -0.000000 8.207798 -6.751688 -1.599543 -7.241651 7.856548 -5.709333 25.163909 -3.701555 3.596869 -14.818715 27.225535 2.216692 -3.900374 -0.000006 -0.000003 0.000000 -0.000001 0.000000 
